{
  "accessors": [
    {
      "bufferView": 2,
      "componentType": 5126,
      "count": 564,
      "max": [
        57.73502731323242,
        88.88084411621094,
        59.96746063232422
      ],
      "min": [
        -72.6357650756836,
        -42.46806716918945,
        -85.83283233642578
      ],
      "type": "VEC3"
    },
    {
      "bufferView": 2,
      "byteOffset": 6768,
      "componentType": 5126,
      "count": 564,
      "max": [
        0.9500420689582825,
        0.998959481716156,
        0.9661552906036377
      ],
      "min": [
        -0.9939292669296265,
        -1.0,
        -0.9979930520057678
      ],
      "type": "VEC3"
    },
    {
      "bufferView": 1,
      "componentType": 5126,
      "count": 564,
      "max": [
        0.7500000596046448,
        1.0
      ],
      "min": [
        0.25,
        0.03349362313747406
      ],
      "type": "VEC2"
    },
    {
      "bufferView": 0,
      "componentType": 5125,
      "count": 2814,
      "type": "SCALAR"
    },
    {
      "bufferView": 2,
      "byteOffset": 13536,
      "componentType": 5126,
      "count": 564,
      "max": [
        57.73502731323242,
        88.88084411621094,
        59.96746063232422
      ],
      "min": [
        -72.6357650756836,
        -42.46806716918945,
        -85.83283233642578
      ],
      "type": "VEC3"
    },
    {
      "bufferView": 2,
      "byteOffset": 20304,
      "componentType": 5126,
      "count": 564,
      "max": [
        0.9500420689582825,
        0.998959481716156,
        0.9661552906036377
      ],
      "min": [
        -0.9939292669296265,
        -1.0,
        -0.9979930520057678
      ],
      "type": "VEC3"
    },
    {
      "bufferView": 1,
      "byteOffset": 4512,
      "componentType": 5126,
      "count": 564,
      "max": [
        0.7500000596046448,
        1.0
      ],
      "min": [
        0.25,
        0.03349362313747406
      ],
      "type": "VEC2"
    },
    {
      "bufferView": 0,
      "byteOffset": 11256,
      "componentType": 5125,
      "count": 2814,
      "type": "SCALAR"
    },
    {
      "bufferView": 2,
      "byteOffset": 27072,
      "componentType": 5126,
      "count": 564,
      "max": [
        57.73502731323242,
        88.88084411621094,
        59.96746063232422
      ],
      "min": [
        -72.6357650756836,
        -42.46806716918945,
        -85.83283233642578
      ],
      "type": "VEC3"
    },
    {
      "bufferView": 2,
      "byteOffset": 33840,
      "componentType": 5126,
      "count": 564,
      "max": [
        0.9500420689582825,
        0.998959481716156,
        0.9661552906036377
      ],
      "min": [
        -0.9939292669296265,
        -1.0,
        -0.9979930520057678
      ],
      "type": "VEC3"
    },
    {
      "bufferView": 1,
      "byteOffset": 9024,
      "componentType": 5126,
      "count": 564,
      "max": [
        0.7500000596046448,
        1.0
      ],
      "min": [
        0.25,
        0.03349362313747406
      ],
      "type": "VEC2"
    },
    {
      "bufferView": 0,
      "byteOffset": 22512,
      "componentType": 5125,
      "count": 2814,
      "type": "SCALAR"
    },
    {
      "bufferView": 3,
      "componentType": 5126,
      "count": 251,
      "max": [
        8.33332347869873
      ],
      "min": [
        0.0416666679084301
      ],
      "type": "SCALAR"
    },
    {
      "bufferView": 5,
      "componentType": 5126,
      "count": 251,
      "max": [
        0.6773685812950134,
        0.8368684649467468,
        0.6489094495773315,
        1.0
      ],
      "min": [
        -0.6323038935661316,
        -0.6480361223220825,
        -0.6673870086669922,
        -0.28097960352897644
      ],
      "type": "VEC4"
    },
    {
      "bufferView": 3,
      "byteOffset": 1004,
      "componentType": 5126,
      "count": 114,
      "max": [
        8.33332347869873
      ],
      "min": [
        0.0416666679084301
      ],
      "type": "SCALAR"
    },
    {
      "bufferView": 4,
      "componentType": 5126,
      "count": 114,
      "max": [
        0.0,
        206.81857299804688,
        0.0
      ],
      "min": [
        0.0,
        164.53382873535156,
        0.0
      ],
      "type": "VEC3"
    },
    {
      "bufferView": 3,
      "byteOffset": 1460,
      "componentType": 5126,
      "count": 251,
      "max": [
        8.33332347869873
      ],
      "min": [
        0.0416666679084301
      ],
      "type": "SCALAR"
    },
    {
      "bufferView": 5,
      "byteOffset": 4016,
      "componentType": 5126,
      "count": 251,
      "max": [
        0.18795588612556458,
        0.0035658462438732386,
        0.05052688345313072,
        0.9996360540390015
      ],
      "min": [
        -0.21612673997879028,
        -0.0035087766591459513,
        0.0,
        0.976365327835083
      ],
      "type": "VEC4"
    }
  ],
  "animations": [
    {
      "channels": [
        {
          "sampler": 0,
          "target": {
            "node": 4,
            "path": "rotation"
          }
        },
        {
          "sampler": 1,
          "target": {
            "node": 6,
            "path": "translation"
          }
        },
        {
          "sampler": 2,
          "target": {
            "node": 6,
            "path": "rotation"
          }
        }
      ],
      "name": "Take 001",
      "samplers": [
        {
          "input": 12,
          "interpolation": "LINEAR",
          "output": 13
        },
        {
          "input": 14,
          "interpolation": "LINEAR",
          "output": 15
        },
        {
          "input": 16,
          "interpolation": "LINEAR",
          "output": 17
        }
      ]
    }
  ],
  "asset": {
    "extras": {
      "author": "claudia miranda (https://sketchfab.com/ghostmeat)",
      "license": "CC-BY-4.0 (http://creativecommons.org/licenses/by/4.0/)",
      "source": "https://sketchfab.com/3d-models/opal-abstract-sculpture-daily-3-015b69cc1a3e4da0bd2d5521f9a2322f",
      "title": "Opal Abstract Sculpture - Daily 3"
    },
    "generator": "Sketchfab-12.68.0",
    "version": "2.0"
  },
  "bufferViews": [
    {
      "buffer": 0,
      "byteLength": 33768,
      "name": "floatBufferViews",
      "target": 34963
    },
    {
      "buffer": 0,
      "byteLength": 13536,
      "byteOffset": 33768,
      "byteStride": 8,
      "name": "floatBufferViews",
      "target": 34962
    },
    {
      "buffer": 0,
      "byteLength": 40608,
      "byteOffset": 47304,
      "byteStride": 12,
      "name": "floatBufferViews",
      "target": 34962
    },
    {
      "buffer": 0,
      "byteLength": 2464,
      "byteOffset": 87912,
      "name": "floatBufferViews"
    },
    {
      "buffer": 0,
      "byteLength": 1368,
      "byteOffset": 90376,
      "byteStride": 12,
      "name": "floatBufferViews"
    },
    {
      "buffer": 0,
      "byteLength": 8032,
      "byteOffset": 91744,
      "byteStride": 16,
      "name": "floatBufferViews"
    }
  ],
  "buffers": [
    {
      "byteLength": 99776,
      "uri": "scene.bin"
    }
  ],
  "images": [
    {
      "uri": "textures/lambert2_baseColor.png"
    }
  ],
  "materials": [
    {
      "doubleSided": true,
      "emissiveFactor": [
        0.025018297319163735,
        0.00216206451158488,
        0.03349356212913697
      ],
      "name": "lambert2",
      "pbrMetallicRoughness": {
        "baseColorTexture": {
          "index": 0
        },
        "roughnessFactor": 0.5226753048780488
      }
    }
  ],
  "meshes": [
    {
      "name": "pPyramid1_lambert2_0",
      "primitives": [
        {
          "attributes": {
            "NORMAL": 1,
            "POSITION": 0,
            "TEXCOORD_0": 2
          },
          "indices": 3,
          "material": 0,
          "mode": 4
        }
      ]
    },
    {
      "name": "pPyramid2_lambert2_0",
      "primitives": [
        {
          "attributes": {
            "NORMAL": 5,
            "POSITION": 4,
            "TEXCOORD_0": 6
          },
          "indices": 7,
          "material": 0,
          "mode": 4
        }
      ]
    },
    {
      "name": "pPyramid3_lambert2_0",
      "primitives": [
        {
          "attributes": {
            "NORMAL": 9,
            "POSITION": 8,
            "TEXCOORD_0": 10
          },
          "indices": 11,
          "material": 0,
          "mode": 4
        }
      ]
    }
  ],
  "nodes": [
    {
      "children": [
        1
      ],
      "matrix": [
        3.6570849418640137,
        0.0,
        0.0,
        0.0,
        0.0,
        8.12035981093476e-16,
        -3.6570849418640137,
        0.0,
        0.0,
        3.6570849418640137,
        8.12035981093476e-16,
        0.0,
        0.0,
        0.0,
        0.0,
        1.0
      ],
      "name": "Sketchfab_model"
    },
    {
      "children": [
        2
      ],
      "matrix": [
        1.0,
        0.0,
        0.0,
        0.0,
        0.0,
        0.0,
        1.0,
        0.0,
        0.0,
        -1.0,
        0.0,
        0.0,
        0.0,
        0.0,
        0.0,
        1.0
      ],
      "name": "9c9f7bd613ae48dc83c6dce3968bfbce.fbx"
    },
    {
      "children": [
        3
      ],
      "name": "Object_2"
    },
    {
      "children": [
        4,
        6,
        7,
        9,
        12,
        15,
        17
      ],
      "name": "RootNode"
    },
    {
      "children": [
        5
      ],
      "name": "pPyramid1",
      "rotation": [
        -0.4653565585613251,
        -0.4894940257072449,
        0.5883139371871948,
        0.44466349482536316
      ],
      "scale": [
        2.295262575149536,
        2.295262575149536,
        2.295262575149536
      ],
      "translation": [
        0.0,
        97.58321380615234,
        0.0
      ]
    },
    {
      "mesh": 0,
      "name": "pPyramid1_lambert2_0"
    },
    {
      "name": "nurbsCircle1",
      "rotation": [
        -0.19974401593208313,
        -0.00065570481820032,
        0.0019802236929535866,
        0.9798458814620972
      ],
      "scale": [
        3.8088674545288086,
        3.8088674545288086,
        3.8088674545288086
      ],
      "translation": [
        0.0,
        205.0780029296875,
        0.0
      ]
    },
    {
      "children": [
        8
      ],
      "name": "camera1",
      "rotation": [
        0.009228582493960857,
        -0.7258375883102417,
        0.009739871136844158,
        0.6877352595329285
      ],
      "translation": [
        21.89305877685547,
        56.3138542175293,
        -349.9176330566406
      ]
    },
    {
      "name": "Object_8"
    },
    {
      "children": [
        10
      ],
      "name": "directionalLight1",
      "rotation": [
        -0.4494829773902893,
        -0.0,
        0.0,
        0.8932889103889465
      ],
      "translation": [
        0.0,
        469.27215576171875,
        -460.44256591796875
      ]
    },
    {
      "children": [
        11
      ],
      "matrix": [
        1.0,
        0.0,
        0.0,
        0.0,
        0.0,
        2.220446049250313e-16,
        1.0,
        0.0,
        0.0,
        -1.0,
        2.220446049250313e-16,
        0.0,
        0.0,
        0.0,
        0.0,
        1.0
      ],
      "name": "Object_10"
    },
    {
      "name": "Object_11"
    },
    {
      "children": [
        13
      ],
      "name": "directionalLight2",
      "rotation": [
        0.40544044971466064,
        -0.40868282318115234,
        0.20965133607387543,
        0.7903434038162231
      ],
      "translation": [
        -456.07501220703125,
        469.27215576171875,
        214.4818572998047
      ]
    },
    {
      "children": [
        14
      ],
      "matrix": [
        1.0,
        0.0,
        0.0,
        0.0,
        0.0,
        2.220446049250313e-16,
        1.0,
        0.0,
        0.0,
        -1.0,
        2.220446049250313e-16,
        0.0,
        0.0,
        0.0,
        0.0,
        1.0
      ],
      "name": "Object_13"
    },
    {
      "name": "Object_14"
    },
    {
      "children": [
        16
      ],
      "name": "pPyramid2",
      "rotation": [
        -0.4653565585613251,
        -0.4894940257072449,
        0.5883139371871948,
        0.44466349482536316
      ],
      "scale": [
        2.295262575149536,
        2.295262575149536,
        2.295262575149536
      ],
      "translation": [
        0.0,
        97.58321380615234,
        0.0
      ]
    },
    {
      "mesh": 1,
      "name": "pPyramid2_lambert2_0"
    },
    {
      "children": [
        18
      ],
      "name": "pPyramid3",
      "rotation": [
        -0.4653565585613251,
        -0.4894940257072449,
        0.5883139371871948,
        0.44466349482536316
      ],
      "scale": [
        2.295262575149536,
        2.295262575149536,
        2.295262575149536
      ],
      "translation": [
        0.0,
        97.58321380615234,
        0.0
      ]
    },
    {
      "mesh": 2,
      "name": "pPyramid3_lambert2_0"
    }
  ],
  "samplers": [
    {
      "magFilter": 9729,
      "minFilter": 9987,
      "wrapS": 10497,
      "wrapT": 10497
    }
  ],
  "scene": 0,
  "scenes": [
    {
      "name": "Sketchfab_Scene",
      "nodes": [
        0
      ]
    }
  ],
  "textures": [
    {
      "sampler": 0,
      "source": 0
    }
  ]
}
