<svg xmlns="http://www.w3.org/2000/svg" viewBox="0 0 500 500"><path fill="transparent" d="M344 501H1V1h500v500H344m65.193-92.916c9.436-.689 15.75-6.407 21.137-13.405.873-1.133 1.093-3.113.944-4.636-3.857-39.593-8.47-79.125-11.565-118.775-3.824-49.003-4.954-98.137-4.027-147.305.263-13.937.04-27.884.04-42.247h-5.06c-20.492.004-40.991.316-61.475-.096-13.596-.273-21.904 6.892-27.208 18.094-7.258 15.33-13.82 30.992-20.566 46.561-.754 1.74-1.105 3.808-1.06 5.71.11 4.49.547 8.974.894 13.457 5.089 65.682 5.395 131.463 4.253 197.281-.26 14.943-.038 29.894-.038 45.378 33.923 0 68.36 0 103.73-.017M252.08 158.406l-14.69-76.362c-.787-.12-1.432-.306-2.078-.307-22.16-.015-44.32-.124-66.479.04-9.65.072-20.785 10.054-22.501 19.482-3.694 20.298-7.543 40.569-11.096 60.891-.84 4.804-2.359 10.33-.866 14.575 19.314 54.916 32.655 111.393 44.686 168.218 4.406 20.814 8.26 41.744 12.43 62.949 12.894 0 25.961.979 38.78-.379 7.324-.775 13.665-6.173 16.064-14.072a29764.83 29764.83 0 0037.72-125.195c.558-1.868.485-4.334-.259-6.12-13.854-33.281-24.746-67.457-31.711-103.72M89.62 305.069L49.034 408.077c23.64 0 46.796-.399 69.928.18 10.44.261 17.72-4.405 24.482-11.211 2.33-2.347 2.726-4.705 1.903-8.09-4.047-16.637-9.055-33.204-11.144-50.114-2.996-24.246-3.961-48.756-5.373-73.178-.59-10.202-.098-20.466-.098-31.95-10.656 4.165-18.999 8.033-22.223 18.328-5.467 17.453-11.072 34.864-16.889 53.027z"/><path fill="#3a4b70" d="M408.726 408.092c-34.904.009-69.341.009-103.264.009 0-15.484-.221-30.435.038-45.378 1.142-65.818.836-131.6-4.253-197.28-.347-4.484-.784-8.968-.893-13.458-.046-1.902.305-3.97 1.06-5.71 6.745-15.569 13.307-31.23 20.565-46.561 5.304-11.202 13.612-18.367 27.208-18.094 20.484.412 40.983.1 61.475.096h5.06c0 14.363.223 28.31-.04 42.247-.927 49.168.203 98.302 4.027 147.305 3.094 39.65 7.708 79.182 11.565 118.775.149 1.523-.071 3.503-.944 4.636-5.387 6.998-11.7 12.716-21.604 13.413zM252.156 158.82c6.888 35.849 17.78 70.025 31.634 103.305.744 1.787.817 4.253.26 6.121a29764.83 29764.83 0 01-37.721 125.195c-2.399 7.899-8.74 13.297-16.064 14.072-12.819 1.358-25.886.379-38.78.379-4.17-21.205-8.024-42.135-12.43-62.949-12.031-56.825-25.372-113.302-44.686-168.218-1.493-4.245.026-9.77.866-14.575 3.553-20.322 7.402-40.593 11.096-60.891 1.716-9.428 12.85-19.41 22.501-19.482 22.159-.164 44.32-.055 66.48-.04.645 0 1.29.186 2.076.307 4.906 25.501 9.798 50.932 14.768 76.776z"/><path fill="#3a4b70" d="M89.755 304.702c5.682-17.796 11.287-35.207 16.754-52.66 3.224-10.295 11.567-14.163 22.223-18.328 0 11.484-.491 21.748.098 31.95 1.412 24.422 2.377 48.932 5.373 73.178 2.089 16.91 7.097 33.477 11.144 50.114.823 3.385.428 5.743-1.903 8.09-6.761 6.806-14.042 11.472-24.482 11.21-23.132-.578-46.289-.18-69.928-.18a444022.7 444022.7 0 0040.721-103.374z"/></svg>