<?xml version="1.0" encoding="iso-8859-1"?>
<!-- Uploaded to: SVG Repo, www.svgrepo.com, Generator: SVG Repo Mixer Tools -->
<!DOCTYPE svg PUBLIC "-//W3C//DTD SVG 1.1//EN" "http://www.w3.org/Graphics/SVG/1.1/DTD/svg11.dtd">
<svg fill="#017ba0" version="1.1" id="Capa_1" xmlns="http://www.w3.org/2000/svg" xmlns:xlink="http://www.w3.org/1999/xlink" 
	 width="800px" height="800px" viewBox="0 0 375.01 375.01"
	 xml:space="preserve">
<g>
	<g>
		
		<path d="M371.869,211.577c-8.567-5.508-16.523-11.016-24.479-16.523c-6.732-4.896-13.464-10.404-21.42-12.24
			c-6.12-1.836-12.24,7.344-6.732,11.627c6.732,4.896,14.076,9.18,20.809,13.464c4.896,3.061,9.792,6.732,14.075,9.792
			c-4.896,2.448-9.792,4.284-14.688,6.732c-3.672,1.836-7.956,3.672-11.628,5.508c-1.224,0.612-2.448,1.836-3.061,3.06
			c-1.836,2.448-0.611,1.225,0,0.612c-2.447,1.836-2.447,7.956,1.837,7.344l0,0c1.224,0.612,2.447,0.612,4.283,0.612
			c4.284-1.224,9.181-3.06,13.464-4.896c9.181-3.673,18.36-7.345,26.929-12.24C376.153,220.758,376.153,214.025,371.869,211.577z"/>
	</g>
</g>
</svg>